<?xml version="1.0" standalone="no"?>
<!DOCTYPE svg PUBLIC "-//W3C//DTD SVG 20010904//EN"
 "http://www.w3.org/TR/2001/REC-SVG-20010904/DTD/svg10.dtd">
<svg version="1.0" xmlns="http://www.w3.org/2000/svg"
 width="200.000000pt" height="200.000000pt" viewBox="0 0 200.000000 200.000000"
 preserveAspectRatio="xMidYMid meet">
<metadata>
Created by potrace 1.15, written by Peter Selinger 2001-2017
</metadata>
<g transform="translate(0.000000,200.000000) scale(0.100000,-0.100000)"
fill="#000000" stroke="none">
<path d="M932 1900 c-174 -36 -289 -214 -253 -392 13 -59 60 -145 87 -155 34
-13 35 14 0 65 -67 100 -69 219 -4 316 53 81 138 126 238 126 101 0 185 -45
238 -127 65 -101 63 -215 -4 -315 -23 -33 -31 -55 -25 -61 16 -16 40 0 71 49
36 58 54 140 45 210 -8 69 -56 164 -103 205 -75 66 -194 99 -290 79z"/>
<path d="M905 1781 c-49 -22 -99 -77 -115 -126 -19 -57 -9 -153 21 -197 13
-21 30 -38 37 -38 23 0 24 28 1 59 -16 22 -24 48 -26 88 -4 69 22 124 76 160
89 60 204 32 259 -62 30 -53 27 -140 -7 -186 -23 -31 -22 -59 2 -59 8 0 26 22
40 49 48 88 31 207 -39 273 -62 58 -170 75 -249 39z"/>
<path d="M945 1678 c-37 -20 -55 -51 -55 -99 0 -53 19 -85 45 -76 12 5 15 12
10 25 -20 44 -17 77 9 101 l26 24 0 -134 0 -135 -60 -12 c-121 -22 -233 -96
-296 -196 -24 -37 -30 -41 -69 -42 -53 -1 -102 -29 -133 -75 -19 -28 -23 -45
-21 -99 1 -51 -3 -76 -22 -115 -19 -41 -23 -66 -24 -140 0 -81 3 -97 32 -157
18 -37 28 -70 22 -73 -5 -4 -9 -24 -9 -46 0 -53 34 -89 85 -89 115 0 113 171
-2 174 -37 2 -39 4 -63 61 -31 76 -34 181 -6 242 l18 41 35 -24 c19 -13 50
-26 69 -30 28 -5 37 -14 54 -51 49 -111 140 -197 254 -239 33 -13 55 -23 49
-23 -19 -1 -61 -71 -68 -113 -6 -34 -5 -38 14 -38 15 0 23 10 31 39 6 24 24
52 45 70 30 26 44 31 85 31 41 0 55 -5 85 -31 21 -18 39 -46 45 -70 8 -29 16
-39 31 -39 19 0 20 4 14 38 -7 42 -49 112 -68 113 -6 0 16 10 49 23 114 42
205 128 254 239 17 37 26 46 54 51 19 4 50 17 69 31 l36 24 18 -47 c26 -67 22
-161 -9 -237 -23 -57 -25 -59 -61 -60 -115 -4 -117 -175 -2 -175 51 0 85 36
85 89 0 22 -4 43 -10 46 -6 4 0 25 14 53 53 105 58 221 15 318 -17 37 -21 65
-20 114 2 54 -1 71 -21 99 -31 46 -80 74 -133 75 -39 1 -45 5 -70 43 -61 98
-176 173 -295 195 l-60 12 0 135 0 134 26 -24 c26 -24 29 -57 9 -101 -11 -26
24 -37 41 -13 20 27 17 105 -4 131 -34 42 -102 57 -147 32z m231 -382 c118
-59 200 -168 225 -300 30 -164 -70 -350 -230 -429 -61 -30 -72 -32 -171 -32
-93 0 -111 3 -163 27 -120 56 -214 179 -238 312 -28 156 63 336 209 414 80 43
122 52 216 47 66 -3 91 -9 152 -39z m-613 -268 c-9 -39 -13 -86 -9 -124 5 -60
4 -62 -17 -56 -135 34 -123 239 14 242 l26 0 -14 -62z m937 47 c96 -50 71
-200 -37 -227 -21 -6 -22 -4 -17 56 4 38 0 85 -9 124 l-14 62 24 0 c13 0 37
-7 53 -15z"/>
<path d="M763 1117 c-31 -29 -36 -40 -37 -80 -1 -56 26 -96 78 -116 81 -31
156 26 156 118 0 36 -6 49 -34 77 -29 29 -41 34 -80 34 -39 0 -52 -6 -83 -33z
m132 -32 c43 -42 28 -103 -29 -125 -75 -28 -134 79 -70 129 35 28 69 26 99 -4z"/>
<path d="M1074 1116 c-28 -28 -34 -42 -34 -75 0 -58 24 -100 67 -118 132 -55
231 117 118 205 -19 15 -42 22 -72 22 -38 0 -50 -5 -79 -34z m130 -27 c42 -33
35 -99 -15 -124 -76 -40 -146 59 -84 120 30 30 64 32 99 4z"/>
<path d="M932 397 c-20 -21 -22 -34 -22 -136 0 -62 4 -121 10 -131 15 -29 73
-44 115 -30 19 6 40 20 45 30 6 10 10 70 10 133 0 106 -2 115 -23 135 -33 31
-105 31 -135 -1z m106 -29 c16 -16 16 -200 0 -216 -7 -7 -24 -12 -38 -12 -43
0 -50 16 -50 120 0 104 7 120 50 120 14 0 31 -5 38 -12z"/>
</g>
</svg>
